<?xml version="1.0" encoding="utf-8"?>
<!-- Generator: Adobe Illustrator 26.5.0, SVG Export Plug-In . SVG Version: 6.00 Build 0)  -->
<svg version="1.1" id="Layer_1" xmlns="http://www.w3.org/2000/svg" xmlns:xlink="http://www.w3.org/1999/xlink" x="0px" y="0px"
	 viewBox="0 0 448 512" style="enable-background:new 0 0 448 512;" xml:space="preserve">
<style type="text/css">
	.st0{fill:#FFFFFF;}
</style>
<path class="st0" d="M433,179.1c0-97.2-63.7-125.7-63.7-125.7c-62.5-28.7-228.6-28.4-290.5,0c0,0-63.7,28.5-63.7,125.7
	c0,115.7-6.6,259.4,105.6,289.1c40.5,10.7,75.3,13,103.3,11.4c50.8-2.8,79.3-18.1,79.3-18.1l-1.7-36.9c0,0-36.3,11.4-77.1,10.1
	c-40.4-1.4-83-4.4-89.6-54c-0.6-4.6-0.9-9.3-0.9-13.9c85.6,20.9,158.6,9.1,178.8,6.7c56.1-6.7,105-41.3,111.2-72.9
	C433.8,250.8,433,179.1,433,179.1L433,179.1z M357.9,304.3h-46.6V190.1c0-49.7-64-51.6-64,6.9v62.5h-46.3V197c0-58.5-64-56.6-64-6.9
	v114.2H90.2c0-122.1-5.2-147.9,18.4-175c25.9-28.9,79.8-30.8,103.8,6.1l11.6,19.5l11.6-19.5c24.1-37.1,78.1-34.8,103.8-6.1
	C363.2,156.6,357.9,182.3,357.9,304.3L357.9,304.3z"/>
</svg>
